<?xml version="1.0" encoding="utf-8"?>
<!-- Generator: Adobe Illustrator 19.0.0, SVG Export Plug-In . SVG Version: 6.00 Build 0)  -->
<svg version="1.1" id="Слой_1" xmlns="http://www.w3.org/2000/svg" xmlns:xlink="http://www.w3.org/1999/xlink" x="0px" y="0px"
	 viewBox="0 0 140 48" style="enable-background:new 0 0 140 48;" xml:space="preserve">
<style type="text/css">
	.st0{fill:#A6A6A6;}
	.st1{fill:#FFFFFF;}
	.st2{fill:#FBAE17;}
</style>
<g id="XMLID_37_">
	<path id="XMLID_40_" d="M136.8,48H3c-1.7,0-3-1.4-3-3V3c0-1.7,1.4-3,3-3h133.7c1.7,0,3,1.4,3,3V45C139.8,46.6,138.5,48,136.8,48z"
		/>
	<path id="XMLID_36_" class="st0" d="M136.8,1c1.1,0,2,0.9,2,2V45c0,1.1-0.9,2-2,2H3c-1.1,0-2-0.9-2-2V3c0-1.1,0.9-2,2-2H136.8
		 M136.8,0H3C1.4,0,0,1.4,0,3V45c0,1.7,1.4,3,3,3h133.7c1.7,0,3-1.4,3-3V3C139.8,1.4,138.5,0,136.8,0L136.8,0z"/>
</g>
<g>
	<path id="XMLID_33_" class="st1" d="M64.1,21.9c1.1-2.3,4.5-2.5,5.6,0.2c0.1-0.2,0.2-0.3,0.3-0.4c0.7-1.1,1.7-1.6,3-1.5
		c1.1,0.1,2,0.6,2.5,1.7c0.3,0.7,0.3,1.4,0.3,2.2c0,2.4,0,4.9,0,7.3c0,0.7,0,0.7-0.7,0.8c-0.5,0-1,0-1.6,0c-0.5,0-0.7-0.2-0.7-0.7
		c0-2.2,0-4.5,0-6.7c0-0.2,0-0.4,0-0.6c-0.1-0.7-0.3-1-0.9-1.2c-0.6-0.1-1.2,0.1-1.5,0.6c-0.2,0.4-0.3,0.8-0.3,1.2
		c0,2.2,0,4.4,0,6.5c0,0.7,0,0.8-0.8,0.8c-0.5,0-1,0-1.5,0C67,32.1,67,32,67,31.4c0-2.2,0-4.3,0-6.5c0-0.4,0-0.7-0.1-1.1
		c-0.2-0.6-0.5-0.9-1.1-1c-0.6,0-1.1,0.3-1.3,0.9c-0.2,0.5-0.2,1.1-0.2,1.6c0,2,0,4,0,6.1c0,0.5-0.2,0.7-0.7,0.7c-0.6,0-1.1,0-1.7,0
		c-0.4,0-0.6-0.1-0.6-0.5c0-3.6,0-7.1,0-10.7c0-0.4,0.1-0.6,0.5-0.5c0.6,0,1.2,0,1.8,0c0.4,0,0.5,0.2,0.5,0.5
		C64.1,21.2,64.1,21.6,64.1,21.9z"/>
	<path id="XMLID_32_" class="st1" d="M112.6,22.2c0.3-0.4,0.4-0.8,0.7-1c0.7-1,1.7-1.2,2.8-1c1.1,0.2,1.8,0.8,2.2,1.8
		c0.2,0.5,0.3,1,0.3,1.5c0,2.7,0,5.4,0,8.1c0,0.4-0.2,0.5-0.5,0.5c-0.6,0-1.2,0-1.8,0c-0.5,0-0.6-0.2-0.6-0.6c0-2.1,0-4.3,0-6.4
		c0-0.5,0-0.9-0.2-1.3c-0.3-0.9-1.3-1.2-2-0.5c-0.6,0.6-0.7,1.3-0.7,2c0,2,0,4.1,0,6.1c0,0.7,0,0.7-0.7,0.7c-0.6,0-1.1,0-1.7,0
		c-0.4,0-0.6-0.1-0.6-0.6c0-3.6,0-7.1,0-10.7c0-0.4,0.2-0.5,0.5-0.5c0.6,0,1.2,0,1.7,0c0.4,0,0.6,0.2,0.5,0.6
		C112.5,21.3,112.6,21.7,112.6,22.2z"/>
	<path id="XMLID_31_" class="st2" d="M77.4,40.8c-6.7-0.1-12.6-2.2-17.7-6.6c-0.2-0.2-0.7-0.4-0.4-0.8c0.3-0.4,0.6,0,0.8,0.1
		c4.2,2.4,8.7,3.8,13.5,4.4c6.2,0.7,12.2-0.1,17.9-2.5c0.1,0,0.2-0.1,0.3-0.1c0.3-0.1,0.6,0,0.7,0.3c0.1,0.3,0,0.5-0.2,0.7
		c-0.5,0.4-1,0.7-1.6,1c-3.4,2-7,3-10.9,3.4c-0.4,0-0.9,0.1-1.3,0.1C78.2,40.9,77.8,40.8,77.4,40.8z"/>
	<path id="XMLID_30_" class="st1" d="M93.1,28.3c1.3,0,2.4,0.1,3.6,0.6c0.6,0.2,0.9,0.6,0.8,1.2c0,0.4,0,0.8,0,1.1
		c0,0.5-0.2,0.7-0.7,0.4c-2.4-1.1-4.7-1.1-7.1,0c-0.4,0.2-0.7,0.1-0.7-0.4c0-0.6,0-1.1,0-1.7c0-0.4,0.2-0.7,0.4-1
		c1.2-1.8,2.5-3.6,3.7-5.4c0.1-0.1,0.2-0.3,0.3-0.5c-1.1,0-2.2,0-3.3,0c-0.7,0-0.8-0.1-0.8-0.8c0-0.4,0-0.7,0-1.1
		c0-0.4,0.2-0.5,0.5-0.5c2.3,0,4.5,0,6.8,0c0.4,0,0.5,0.2,0.5,0.5c0.1,0.9-0.1,1.7-0.7,2.5c-1.1,1.4-2.1,3-3.1,4.4
		C93.3,27.9,93.3,28.1,93.1,28.3z"/>
	<path id="XMLID_29_" class="st2" d="M92,34.1c-0.8,0-1.6,0.1-2.4,0.2c-0.2,0-0.5,0.2-0.6-0.2c-0.1-0.3,0.2-0.4,0.4-0.5
		c1.5-0.9,3.1-1.1,4.8-1c0.1,0,0.2,0,0.3,0c1.3,0.2,1.5,0.5,1.3,1.8c-0.3,1.7-0.8,3.2-2,4.4c-0.2,0.2-0.5,0.7-0.8,0.5
		c-0.4-0.2,0-0.6,0.1-0.9c0.3-0.9,0.7-1.8,0.9-2.8c0.3-1.2,0-1.6-1.2-1.6C92.5,34,92.3,34.1,92,34.1z"/>
	<path class="st1" d="M87.5,30c-0.6-0.7-0.7-1.5-0.7-2.3c0-1.5,0-3,0-4.4c0-1.3-0.7-2.3-2-2.8c-1.7-0.6-3.3-0.6-4.9,0.2
		c-1,0.5-1.7,1.3-2,2.4c-0.2,0.6-0.1,0.8,0.6,0.8c0.4,0,0.8,0,1.2,0.1c0.6,0.1,0.8,0,1-0.6c0.2-0.8,1-1.2,1.9-1
		c0.7,0.1,1.1,0.5,1.1,1.4c0,0.1,0,0.2,0,0.4c0.1,0.5-0.1,0.6-0.6,0.7c-0.9,0-1.8,0.2-2.7,0.4c-1.7,0.5-2.8,1.5-3,3.2
		c-0.3,2.3,1,3.9,3.4,3.9c1.3,0,2.4-0.5,3.3-1.6c0.3,0.5,0.6,0.9,1,1.2c0.3,0.3,0.6,0.4,0.9,0c0.4-0.4,0.9-0.8,1.3-1.1
		C87.8,30.6,87.8,30.3,87.5,30z M83.8,27.3c0,0.7-0.1,1.4-0.5,2c-0.3,0.5-0.8,0.8-1.4,0.8c-0.4,0-0.8-0.2-1-0.6
		c-0.5-0.8-0.2-2,0.6-2.6c0.6-0.4,1.4-0.5,2.1-0.5c0.2,0,0.2,0.1,0.2,0.3C83.8,26.9,83.8,27.1,83.8,27.3z"/>
	<path class="st1" d="M59.5,30c-0.7-0.7-0.8-1.6-0.8-2.6c0-0.6,0-1.2,0-1.8c0,0,0,0,0,0c0-0.8,0-1.7,0-2.5c-0.1-1.3-0.7-2.2-1.9-2.7
		c-1.7-0.6-3.3-0.6-4.9,0.1c-1.1,0.5-1.8,1.4-2,2.6c-0.1,0.4,0.1,0.6,0.5,0.7c0.5,0,1,0.1,1.6,0.2c0.4,0.1,0.6-0.1,0.8-0.5
		c0.3-0.9,1.2-1.4,2.2-1.1c0.7,0.2,1,0.8,0.9,1.9c0,0.3-0.1,0.4-0.5,0.5c-1,0.1-1.9,0.2-2.8,0.4c-1.7,0.5-2.7,1.5-3,3.2
		c-0.3,2.1,0.9,3.7,2.8,3.9c1.3,0.1,2.6-0.2,3.5-1.2c0.3-0.3,0.4-0.3,0.6,0.1c0.2,0.4,0.5,0.6,0.8,0.9c0.3,0.2,0.5,0.2,0.8,0
		c0.5-0.4,0.9-0.8,1.4-1.2C59.8,30.5,59.8,30.3,59.5,30z M55.7,27.4c0,0.7-0.1,1.4-0.6,2C54.7,30,54,30.2,53.5,30
		c-0.6-0.2-0.9-0.8-0.9-1.5c0-0.9,0.4-1.5,1.2-1.8c0.4-0.2,0.9-0.2,1.4-0.3c0.4-0.1,0.6,0,0.5,0.5C55.7,27.1,55.7,27.2,55.7,27.4z"
		/>
	<path class="st1" d="M107.3,22.5c-0.8-1.5-2.1-2.3-3.8-2.3c-1.8-0.1-3.2,0.7-4.1,2.2c-0.7,1.2-0.9,2.5-0.9,4c0,1,0.2,2.2,0.7,3.2
		c0.8,1.7,2.1,2.7,4,2.8c1.9,0.1,3.4-0.8,4.2-2.5C108.6,27.4,108.5,24.9,107.3,22.5z M104.8,28.7c-0.1,0.2-0.2,0.5-0.3,0.7
		c-0.6,0.9-1.8,0.9-2.3-0.1c-0.3-0.6-0.4-1.2-0.5-1.9c-0.1-1.2-0.1-2.4,0.1-3.6c0.1-0.3,0.2-0.5,0.3-0.7c0.3-0.5,0.7-0.8,1.3-0.7
		c0.6,0,1,0.3,1.2,0.9c0.3,1,0.4,2,0.4,3C105,27.1,105,27.9,104.8,28.7z"/>
</g>
<g>
	<path id="XMLID_22_" class="st1" d="M26.1,36c-4.9,0-9.2-1.6-12.9-4.8c-0.2-0.1-0.5-0.3-0.3-0.6c0.2-0.3,0.4,0,0.6,0.1
		c3.1,1.7,6.4,2.8,9.8,3.2c4.5,0.5,8.9-0.1,13.1-1.8c0.1,0,0.2-0.1,0.2-0.1c0.2,0,0.4,0,0.5,0.2c0.1,0.2,0,0.4-0.2,0.5
		c-0.4,0.3-0.7,0.5-1.1,0.8c-2.5,1.4-5.1,2.2-7.9,2.5C27.7,36,27.4,36,27,36C26.7,36.1,26.4,36,26.1,36z"/>
	<path id="XMLID_21_" class="st1" d="M36.8,31.1c-0.6,0-1.2,0.1-1.8,0.1c-0.1,0-0.4,0.1-0.4-0.1c-0.1-0.2,0.1-0.3,0.3-0.4
		c1.1-0.7,2.3-0.8,3.5-0.7c0.1,0,0.2,0,0.2,0c0.9,0.1,1.1,0.4,1,1.3c-0.2,1.2-0.6,2.3-1.5,3.2c-0.2,0.2-0.3,0.5-0.6,0.3
		c-0.3-0.2,0-0.4,0.1-0.6c0.2-0.7,0.5-1.3,0.6-2c0.2-0.9,0-1.1-0.9-1.2C37.2,31.1,37,31.1,36.8,31.1z"/>
</g>
<path class="st1" d="M33.3,26.9c-1-1.1-1.2-2.4-1.2-3.9c0-0.9,0-1.8,0-2.7c0,0,0,0,0,0c0-1.3,0-2.5,0-3.8c-0.1-2-1.1-3.4-2.9-4.1
	c-2.5-1-5-0.9-7.4,0.2c-1.6,0.7-2.6,2.1-3,3.8c-0.1,0.6,0.1,0.9,0.7,1c0.8,0.1,1.6,0.1,2.3,0.3c0.7,0.1,0.9-0.1,1.1-0.7
	c0.4-1.4,1.9-2.1,3.2-1.6c1.1,0.3,1.5,1.2,1.4,2.8c0,0.5-0.2,0.7-0.7,0.7c-1.4,0.1-2.9,0.3-4.2,0.6c-2.5,0.7-4.1,2.2-4.5,4.8
	c-0.5,3.1,1.3,5.6,4.2,5.8c2,0.2,3.8-0.3,5.3-1.8c0.4-0.4,0.6-0.5,0.9,0.1c0.3,0.5,0.7,0.9,1.2,1.3c0.4,0.3,0.8,0.3,1.2,0
	c0.7-0.6,1.4-1.2,2.1-1.8C33.6,27.7,33.6,27.3,33.3,26.9z M27.6,23c0.1,1-0.2,2.1-0.8,3c-0.6,0.9-1.7,1.2-2.5,1
	c-0.8-0.3-1.3-1.1-1.3-2.3c0-1.3,0.6-2.2,1.8-2.7c0.7-0.3,1.4-0.3,2-0.4c0.6-0.1,0.9,0,0.8,0.7C27.5,22.4,27.6,22.6,27.6,23z"/>
<g>
	<path class="st1" d="M51.1,12.4l-0.7,2.2h-1l2.4-7.1H53l2.4,7.1h-1l-0.8-2.2H51.1z M53.5,11.7l-0.7-2.1c-0.2-0.5-0.3-0.9-0.4-1.3h0
		c-0.1,0.4-0.2,0.9-0.4,1.3l-0.7,2.1H53.5z"/>
	<path class="st1" d="M56.6,9.5l1,2.9c0.2,0.5,0.3,0.9,0.4,1.3h0c0.1-0.4,0.3-0.8,0.4-1.3l1-2.9h1l-2,5.1h-0.9l-1.9-5.1H56.6z"/>
	<path class="st1" d="M64.1,14.6L64,14h0c-0.3,0.4-0.8,0.8-1.6,0.8c-1,0-1.6-0.7-1.6-1.5c0-1.2,1.1-1.9,3.1-1.9v-0.1
		c0-0.4-0.1-1.2-1.2-1.2c-0.5,0-1,0.1-1.3,0.4l-0.2-0.6c0.4-0.3,1-0.5,1.7-0.5c1.6,0,1.9,1.1,1.9,2.1v1.9c0,0.4,0,0.9,0.1,1.2H64.1z
		 M64,12c-1,0-2.2,0.2-2.2,1.2c0,0.6,0.4,0.9,0.9,0.9c0.7,0,1.1-0.4,1.2-0.9c0-0.1,0.1-0.2,0.1-0.3V12z"/>
	<path class="st1" d="M67.4,8.1c0,0.3-0.2,0.6-0.6,0.6c-0.3,0-0.6-0.3-0.6-0.6c0-0.3,0.2-0.6,0.6-0.6C67.2,7.5,67.4,7.7,67.4,8.1z
		 M66.4,14.6V9.5h0.9v5.1H66.4z"/>
	<path class="st1" d="M68.8,7.1h0.9v7.5h-0.9V7.1z"/>
	<path class="st1" d="M74.2,14.6L74.1,14h0c-0.3,0.4-0.8,0.8-1.6,0.8c-1,0-1.6-0.7-1.6-1.5c0-1.2,1.1-1.9,3.1-1.9v-0.1
		c0-0.4-0.1-1.2-1.2-1.2c-0.5,0-1,0.1-1.3,0.4l-0.2-0.6c0.4-0.3,1-0.5,1.7-0.5c1.6,0,1.9,1.1,1.9,2.1v1.9c0,0.4,0,0.9,0.1,1.2H74.2z
		 M74,12c-1,0-2.2,0.2-2.2,1.2c0,0.6,0.4,0.9,0.9,0.9c0.7,0,1.1-0.4,1.2-0.9c0-0.1,0.1-0.2,0.1-0.3V12z"/>
	<path class="st1" d="M76.4,14.6c0-0.3,0-0.9,0-1.3V7.1h0.9v3.2h0c0.3-0.6,0.9-0.9,1.7-0.9c1.3,0,2.2,1.1,2.2,2.6
		c0,1.8-1.2,2.7-2.3,2.7c-0.7,0-1.3-0.3-1.7-1h0l0,0.8H76.4z M77.4,12.6c0,0.1,0,0.2,0,0.3c0.2,0.6,0.7,1.1,1.4,1.1
		c1,0,1.6-0.8,1.6-2c0-1-0.5-1.9-1.5-1.9c-0.6,0-1.2,0.4-1.4,1.1c0,0.1-0.1,0.2-0.1,0.4V12.6z"/>
	<path class="st1" d="M82.5,7.1h0.9v7.5h-0.9V7.1z"/>
	<path class="st1" d="M85.5,12.2c0,1.3,0.8,1.8,1.8,1.8c0.7,0,1.1-0.1,1.4-0.3l0.2,0.7c-0.3,0.1-0.9,0.3-1.7,0.3
		c-1.6,0-2.5-1-2.5-2.6s0.9-2.8,2.4-2.8c1.7,0,2.1,1.5,2.1,2.4c0,0.2,0,0.3,0,0.4H85.5z M88.2,11.6c0-0.6-0.2-1.5-1.3-1.5
		c-0.9,0-1.4,0.9-1.4,1.5H88.2z"/>
	<path class="st1" d="M95.4,14.6L95.3,14h0c-0.3,0.4-0.8,0.8-1.6,0.8c-1,0-1.6-0.7-1.6-1.5c0-1.2,1.1-1.9,3.1-1.9v-0.1
		c0-0.4-0.1-1.2-1.2-1.2c-0.5,0-1,0.1-1.3,0.4l-0.2-0.6c0.4-0.3,1-0.5,1.7-0.5c1.6,0,1.9,1.1,1.9,2.1v1.9c0,0.4,0,0.9,0.1,1.2H95.4z
		 M95.2,12c-1,0-2.2,0.2-2.2,1.2c0,0.6,0.4,0.9,0.9,0.9c0.7,0,1.1-0.4,1.2-0.9c0-0.1,0.1-0.2,0.1-0.3V12z"/>
	<path class="st1" d="M98.7,8v1.5h1.3v0.7h-1.3V13c0,0.6,0.2,1,0.7,1c0.2,0,0.4,0,0.5-0.1l0,0.7c-0.2,0.1-0.5,0.1-0.8,0.1
		c-0.4,0-0.8-0.1-1-0.4c-0.3-0.3-0.4-0.7-0.4-1.3v-2.8H97V9.5h0.8V8.3L98.7,8z"/>
</g>
</svg>
