<?xml version="1.0" encoding="utf-8"?>
<!-- Generator: Adobe Illustrator 19.0.0, SVG Export Plug-In . SVG Version: 6.00 Build 0)  -->
<svg version="1.1" id="Слой_1" xmlns="http://www.w3.org/2000/svg" xmlns:xlink="http://www.w3.org/1999/xlink" x="0px" y="0px"
	 viewBox="0 0 140 48" style="enable-background:new 0 0 140 48;" xml:space="preserve">
<style type="text/css">
	.st0{fill:#A6A6A6;}
	.st1{fill:#FFFFFF;}
</style>
<g id="XMLID_37_">
	<path id="XMLID_40_" d="M136.8,48H3c-1.7,0-3-1.4-3-3V3c0-1.7,1.4-3,3-3h133.7c1.7,0,3,1.4,3,3V45C139.8,46.6,138.5,48,136.8,48z"
		/>
	<path id="XMLID_36_" class="st0" d="M136.8,1c1.1,0,2,0.9,2,2V45c0,1.1-0.9,2-2,2H3c-1.1,0-2-0.9-2-2V3c0-1.1,0.9-2,2-2H136.8
		 M136.8,0H3C1.4,0,0,1.4,0,3V45c0,1.7,1.4,3,3,3h133.7c1.7,0,3-1.4,3-3V3C139.8,1.4,138.5,0,136.8,0L136.8,0z"/>
</g>
<g id="XMLID_35_">
	<g id="XMLID_41_">
		<g id="XMLID_57_">
			<path id="XMLID_70_" class="st1" d="M59.3,16.7c-0.8,0.3-1.6,0.4-2.5,0.4c-1.3,0-2.3-0.4-3-1.1c-0.7-0.7-1.1-1.7-1.1-3
				c0-1.3,0.4-2.3,1.2-3c0.8-0.8,1.9-1.1,3.2-1.1c0.8,0,1.5,0.1,2,0.4l-0.3,1.1C58.3,10.1,57.7,10,57,10c-0.9,0-1.6,0.3-2.2,0.8
				c-0.6,0.5-0.8,1.3-0.8,2.2s0.3,1.7,0.8,2.3c0.5,0.5,1.2,0.8,2.1,0.8c0.5,0,0.9-0.1,1.2-0.2v-2.2h-1.5v-1h2.7L59.3,16.7L59.3,16.7
				z"/>
			<path id="XMLID_67_" class="st1" d="M66,13.8c0,0.2,0,0.4,0,0.6h-3.9c0,0.6,0.2,1,0.6,1.3c0.3,0.3,0.7,0.4,1.3,0.4
				c0.6,0,1.1-0.1,1.6-0.3l0.2,0.9c-0.6,0.2-1.2,0.4-2,0.4c-0.9,0-1.6-0.3-2.1-0.8c-0.5-0.5-0.8-1.2-0.8-2.1c0-0.9,0.2-1.6,0.7-2.2
				c0.5-0.6,1.2-0.9,2-0.9c0.8,0,1.5,0.3,1.9,0.9C65.9,12.5,66,13.1,66,13.8z M64.8,13.5c0-0.4-0.1-0.7-0.3-1
				c-0.2-0.4-0.6-0.5-1-0.5c-0.4,0-0.8,0.2-1,0.5c-0.2,0.3-0.3,0.6-0.4,1L64.8,13.5L64.8,13.5z"/>
			<path id="XMLID_66_" class="st1" d="M70.7,12.2h-1.4V15c0,0.7,0.3,1.1,0.8,1.1c0.2,0,0.4,0,0.6-0.1l0,1c-0.3,0.1-0.6,0.1-1,0.1
				c-0.5,0-0.9-0.2-1.2-0.5c-0.3-0.3-0.4-0.8-0.4-1.6v-2.9h-0.8v-1H68v-1.1l1.3-0.4v1.4h1.4V12.2z"/>
			<path id="XMLID_63_" class="st1" d="M77,9.5c0,0.2-0.1,0.4-0.2,0.6c-0.2,0.1-0.3,0.2-0.6,0.2c-0.2,0-0.4-0.1-0.5-0.2
				c-0.1-0.1-0.2-0.3-0.2-0.6c0-0.2,0.1-0.4,0.2-0.6c0.2-0.1,0.3-0.2,0.6-0.2c0.2,0,0.4,0.1,0.6,0.2C76.9,9.1,77,9.3,77,9.5z
				 M76.9,17h-1.3v-5.8h1.3V17z"/>
			<path id="XMLID_62_" class="st1" d="M81.9,12.2h-1.4V15c0,0.7,0.3,1.1,0.8,1.1c0.2,0,0.4,0,0.6-0.1l0,1c-0.3,0.1-0.6,0.1-1,0.1
				c-0.5,0-0.9-0.2-1.2-0.5c-0.3-0.3-0.4-0.8-0.4-1.6v-2.9h-0.8v-1h0.8v-1.1l1.3-0.4v1.4h1.4L81.9,12.2L81.9,12.2z"/>
			<path id="XMLID_59_" class="st1" d="M92.1,14.1c0,0.9-0.3,1.6-0.8,2.2c-0.5,0.6-1.2,0.9-2.1,0.9c-0.9,0-1.5-0.3-2-0.8
				c-0.5-0.6-0.8-1.3-0.8-2.1c0-0.9,0.3-1.6,0.8-2.2c0.5-0.6,1.2-0.9,2.1-0.9c0.9,0,1.5,0.3,2.1,0.8C91.9,12.5,92.1,13.2,92.1,14.1z
				 M90.8,14.1c0-0.5-0.1-1-0.3-1.4c-0.3-0.5-0.7-0.7-1.2-0.7c-0.5,0-0.9,0.2-1.2,0.7c-0.2,0.4-0.3,0.9-0.3,1.4c0,0.5,0.1,1,0.3,1.4
				c0.3,0.5,0.7,0.7,1.2,0.7c0.5,0,0.9-0.2,1.2-0.7C90.6,15.1,90.8,14.7,90.8,14.1z"/>
			<path id="XMLID_58_" class="st1" d="M98.9,17h-1.3v-3.3c0-1-0.4-1.5-1.2-1.5c-0.4,0-0.7,0.1-0.9,0.4c-0.2,0.3-0.4,0.6-0.4,1V17
				h-1.3v-4.1c0-0.5,0-1.1,0-1.7h1.1l0.1,0.9h0c0.2-0.3,0.4-0.5,0.7-0.7c0.4-0.2,0.7-0.3,1.2-0.3c0.5,0,1,0.2,1.4,0.5
				c0.4,0.4,0.7,1.1,0.7,1.9L98.9,17L98.9,17z"/>
		</g>
		<g id="XMLID_46_">
			<path id="XMLID_54_" class="st1" d="M56.2,24.3c0,0.5-0.2,0.9-0.5,1.2c-0.3,0.3-0.7,0.5-1.2,0.5c-0.5,0-0.8-0.2-1.2-0.5
				s-0.5-0.7-0.5-1.2c0-0.5,0.2-0.9,0.5-1.2c0.3-0.3,0.7-0.5,1.2-0.5c0.5,0,0.9,0.2,1.2,0.5C56,23.4,56.2,23.8,56.2,24.3z
				 M55.9,40.3h-2.7V28h2.7V40.3z"/>
			<path id="XMLID_53_" class="st1" d="M70.6,25.5h-4.9v14.8H63V25.5h-4.9v-2.3h12.5V25.5z"/>
			<path id="XMLID_52_" class="st1" d="M82,40.3h-2.4l-0.2-1.9h-0.1c-0.9,1.4-2.2,2.2-3.9,2.2c-1.2,0-2.2-0.4-2.9-1.1
				c-0.9-0.9-1.3-2.3-1.3-4.2V28H74v6.8c0,2.4,0.8,3.5,2.4,3.5c1.2,0,2.1-0.6,2.5-1.8c0.1-0.3,0.2-0.7,0.2-1V28h2.7v8.8
				C81.9,37.9,81.9,39.1,82,40.3z"/>
			<path id="XMLID_51_" class="st1" d="M96.4,40.3h-2.7v-7.1c0-2.2-0.8-3.3-2.5-3.3c-0.8,0-1.5,0.3-2,0.9c-0.5,0.6-0.8,1.3-0.8,2.1
				v7.3h-2.7v-8.8c0-1.1,0-2.3-0.1-3.5H88l0.1,1.9h0.1c0.3-0.6,0.8-1.1,1.4-1.5c0.7-0.5,1.6-0.7,2.5-0.7c1.1,0,2.1,0.4,2.9,1.1
				c0.9,0.9,1.4,2.3,1.4,4.1L96.4,40.3L96.4,40.3z"/>
			<path id="XMLID_48_" class="st1" d="M110.4,33.5c0,0.5,0,0.9-0.1,1.2h-8.2c0,1.2,0.4,2.1,1.2,2.8c0.7,0.6,1.6,0.9,2.7,0.9
				c1.2,0,2.3-0.2,3.3-0.6l0.4,1.9c-1.2,0.5-2.5,0.8-4.1,0.8c-1.9,0-3.4-0.6-4.5-1.7c-1.1-1.1-1.6-2.6-1.6-4.5
				c0-1.9,0.5-3.4,1.5-4.6c1.1-1.3,2.5-2,4.3-2c1.8,0,3.1,0.7,4,2C110,30.7,110.4,32,110.4,33.5z M107.8,32.8c0-0.8-0.2-1.5-0.5-2.1
				c-0.5-0.8-1.2-1.1-2.2-1.1c-0.9,0-1.6,0.4-2.2,1.1c-0.5,0.6-0.7,1.3-0.8,2.1L107.8,32.8L107.8,32.8z"/>
			<path id="XMLID_47_" class="st1" d="M120.9,36.8c0,1.1-0.4,2.1-1.3,2.8c-0.8,0.7-2,1-3.5,1c-1.4,0-2.6-0.3-3.6-0.8l0.6-2
				c0.9,0.6,2,0.9,3,0.9c1.4,0,2.1-0.5,2.1-1.5c0-0.5-0.2-0.8-0.5-1.1c-0.3-0.3-0.8-0.6-1.6-0.9c-2.2-0.8-3.3-2-3.3-3.5
				c0-1.1,0.4-2,1.2-2.7c0.8-0.7,1.9-1.1,3.2-1.1c1.2,0,2.3,0.2,3.1,0.7l-0.6,2c-0.8-0.5-1.6-0.7-2.5-0.7c-0.6,0-1,0.1-1.3,0.4
				c-0.3,0.3-0.5,0.6-0.5,1c0,0.4,0.2,0.8,0.5,1c0.3,0.3,0.8,0.5,1.7,0.8C119.9,33.8,120.9,35.1,120.9,36.8z"/>
		</g>
		<g id="XMLID_42_">
			<g id="XMLID_43_">
				<path id="XMLID_45_" class="st1" d="M34.5,25.3c0-4.1,3.4-6.1,3.5-6.2c-1.9-2.8-4.9-3.2-6-3.2c-2.5-0.3-5,1.5-6.3,1.5
					c-1.3,0-3.3-1.5-5.4-1.4c-2.7,0-5.3,1.6-6.7,4.1c-2.9,5-0.7,12.4,2,16.5c1.4,2,3,4.2,5.2,4.1c2.1-0.1,2.9-1.3,5.4-1.3
					c2.5,0,3.2,1.3,5.4,1.3c2.2,0,3.6-2,5-4c1.6-2.3,2.3-4.5,2.3-4.6C38.8,31.9,34.5,30.2,34.5,25.3z"/>
				<path id="XMLID_44_" class="st1" d="M30.4,13.1c1.1-1.4,1.9-3.3,1.7-5.2c-1.6,0.1-3.7,1.1-4.8,2.5c-1,1.2-2,3.2-1.7,5.1
					C27.3,15.5,29.2,14.5,30.4,13.1z"/>
			</g>
		</g>
	</g>
</g>
</svg>
