<?xml version="1.0" encoding="utf-8"?>
<!-- Generator: Adobe Illustrator 19.0.0, SVG Export Plug-In . SVG Version: 6.00 Build 0)  -->
<svg version="1.1" id="Слой_1" xmlns="http://www.w3.org/2000/svg" xmlns:xlink="http://www.w3.org/1999/xlink" x="0px" y="0px"
	 viewBox="0 0 140 48" style="enable-background:new 0 0 140 48;" xml:space="preserve">
<style type="text/css">
	.st0{fill:#A6A6A6;}
	.st1{fill:#FFFFFF;stroke:#FFFFFF;stroke-width:0.2;stroke-miterlimit:10;}
	.st2{fill:#FFFFFF;}
	.st3{fill:url(#XMLID_35_);}
	.st4{fill:url(#XMLID_41_);}
	.st5{fill:url(#XMLID_42_);}
	.st6{fill:url(#XMLID_43_);}
	.st7{opacity:0.2;enable-background:new    ;}
	.st8{opacity:0.12;enable-background:new    ;}
	.st9{opacity:0.25;fill:#FFFFFF;enable-background:new    ;}
</style>
<g id="XMLID_37_">
	<path id="XMLID_40_" d="M136.8,48H3c-1.7,0-3-1.4-3-3V3c0-1.7,1.4-3,3-3h133.7c1.7,0,3,1.4,3,3V45C139.8,46.6,138.5,48,136.8,48z"
		/>
	<path id="XMLID_36_" class="st0" d="M136.8,1c1.1,0,2,0.9,2,2V45c0,1.1-0.9,2-2,2H3c-1.1,0-2-0.9-2-2V3c0-1.1,0.9-2,2-2H136.8
		 M136.8,0H3C1.4,0,0,1.4,0,3V45c0,1.7,1.4,3,3,3h133.7c1.7,0,3-1.4,3-3V3C139.8,1.4,138.5,0,136.8,0L136.8,0z"/>
</g>
<g id="XMLID_2_">
	<g id="XMLID_13_">
		<g id="XMLID_73_">
			<path id="XMLID_87_" class="st1" d="M53.5,14.1c0,0.8-0.2,1.5-0.7,1.9c-0.5,0.6-1.3,0.9-2.1,0.9c-0.8,0-1.6-0.3-2.1-0.9
				c-0.6-0.6-0.9-1.3-0.9-2.2c0-0.9,0.3-1.6,0.9-2.2c0.6-0.6,1.3-0.9,2.1-0.9c0.4,0,0.8,0.1,1.2,0.2c0.4,0.2,0.7,0.4,0.9,0.6
				l-0.5,0.5c-0.4-0.5-0.9-0.7-1.6-0.7c-0.6,0-1.1,0.2-1.6,0.6c-0.4,0.4-0.7,1-0.7,1.7c0,0.7,0.2,1.2,0.7,1.7c0.4,0.4,1,0.6,1.6,0.6
				c0.6,0,1.2-0.2,1.6-0.6c0.3-0.3,0.4-0.7,0.5-1.2h-2.1v-0.7h2.8C53.5,13.8,53.5,14,53.5,14.1z"/>
			<path id="XMLID_85_" class="st1" d="M58,11.7h-2.6v1.8h2.4v0.7h-2.4v1.8H58v0.7h-3.4V11H58V11.7z"/>
			<path id="XMLID_83_" class="st1" d="M61.1,16.8h-0.7v-5.1h-1.6V11h4v0.7h-1.6V16.8z"/>
			<path id="XMLID_81_" class="st1" d="M65.6,16.8V11h0.7v5.8H65.6z"/>
			<path id="XMLID_79_" class="st1" d="M69.7,16.8H69v-5.1h-1.6V11h4v0.7h-1.6V16.8z"/>
			<path id="XMLID_76_" class="st1" d="M78.9,16c-0.6,0.6-1.3,0.9-2.1,0.9c-0.8,0-1.6-0.3-2.1-0.9c-0.6-0.6-0.9-1.3-0.9-2.2
				c0-0.8,0.3-1.6,0.9-2.2c0.6-0.6,1.3-0.9,2.1-0.9c0.8,0,1.6,0.3,2.1,0.9c0.6,0.6,0.9,1.3,0.9,2.1C79.7,14.7,79.4,15.4,78.9,16z
				 M75.2,15.5c0.4,0.4,1,0.7,1.6,0.7c0.6,0,1.1-0.2,1.6-0.7c0.4-0.4,0.6-1,0.6-1.7s-0.2-1.2-0.6-1.7c-0.4-0.4-1-0.7-1.6-0.7
				c-0.6,0-1.1,0.2-1.6,0.7c-0.4,0.4-0.6,1-0.6,1.7S74.7,15.1,75.2,15.5z"/>
			<path id="XMLID_74_" class="st1" d="M80.8,16.8V11h0.9l2.8,4.5h0l0-1.1V11h0.7v5.8h-0.8l-3-4.7h0l0,1.1v3.6H80.8z"/>
		</g>
		<path id="XMLID_14_" class="st2" d="M73.6,25.2c-2.3,0-4.1,1.7-4.1,4.1c0,2.4,1.9,4.1,4.1,4.1c2.3,0,4.1-1.7,4.1-4.1
			C77.7,27,75.9,25.2,73.6,25.2z M73.6,31.8c-1.2,0-2.3-1-2.3-2.5c0-1.5,1.1-2.5,2.3-2.5s2.3,1,2.3,2.5
			C75.9,30.8,74.8,31.8,73.6,31.8z M64.6,25.2c-2.3,0-4.1,1.7-4.1,4.1c0,2.4,1.9,4.1,4.1,4.1c2.3,0,4.1-1.7,4.1-4.1
			C68.7,27,66.8,25.2,64.6,25.2z M64.6,31.8c-1.2,0-2.3-1-2.3-2.5c0-1.5,1.1-2.5,2.3-2.5c1.2,0,2.3,1,2.3,2.5
			C66.9,30.8,65.8,31.8,64.6,31.8z M53.9,26.5v1.7H58c-0.1,1-0.5,1.7-1,2.2c-0.6,0.6-1.6,1.3-3.2,1.3c-2.6,0-4.6-2.1-4.6-4.6
			s2-4.6,4.6-4.6c1.4,0,2.4,0.5,3.1,1.2l1.2-1.2c-1-1-2.4-1.8-4.4-1.8c-3.5,0-6.5,2.9-6.5,6.4c0,3.5,3,6.4,6.5,6.4
			c1.9,0,3.3-0.6,4.5-1.8c1.2-1.2,1.5-2.8,1.5-4.1c0-0.4,0-0.8-0.1-1.1H53.9z M97.7,27.9c-0.3-0.9-1.4-2.6-3.5-2.6
			c-2.1,0-3.9,1.7-3.9,4.1c0,2.3,1.7,4.1,4.1,4.1c1.9,0,3-1.2,3.4-1.8l-1.4-0.9c-0.5,0.7-1.1,1.1-2,1.1c-0.9,0-1.6-0.4-2-1.2
			l5.5-2.3L97.7,27.9z M92.1,29.2c0-1.6,1.2-2.4,2.2-2.4c0.7,0,1.3,0.4,1.5,0.9L92.1,29.2z M87.6,33.2h1.8V21.1h-1.8V33.2z
			 M84.6,26.2L84.6,26.2c-0.5-0.5-1.2-0.9-2.2-0.9c-2.1,0-3.9,1.8-3.9,4.1c0,2.3,1.9,4.1,3.9,4.1c1,0,1.8-0.4,2.2-0.9h0.1v0.6
			c0,1.6-0.8,2.4-2.2,2.4c-1.1,0-1.8-0.8-2.1-1.5l-1.6,0.7c0.5,1.1,1.7,2.4,3.6,2.4c2.1,0,3.9-1.2,3.9-4.3v-7.4h-1.7V26.2z
			 M82.6,31.8c-1.2,0-2.3-1-2.3-2.5c0-1.4,1-2.5,2.3-2.5c1.2,0,2.2,1.1,2.2,2.5C84.8,30.8,83.8,31.8,82.6,31.8z M106.2,21.1h-4.3
			v12.1h1.8v-4.6h2.5c2,0,4-1.4,4-3.8S108.2,21.1,106.2,21.1z M106.2,27h-2.6v-4.1h2.6c1.3,0,2.1,1.1,2.1,2.1
			C108.3,25.8,107.5,27,106.2,27z M117.4,25.2c-1.3,0-2.7,0.6-3.2,1.9l1.6,0.7c0.3-0.7,1-0.9,1.6-0.9c0.9,0,1.9,0.6,1.9,1.6v0.1
			c-0.3-0.2-1-0.5-1.9-0.5c-1.7,0-3.5,0.9-3.5,2.7c0,1.6,1.4,2.7,3,2.7c1.2,0,1.9-0.5,2.3-1.2h0.1v0.9h1.7v-4.6
			C121,26.4,119.4,25.2,117.4,25.2z M117.1,31.8c-0.6,0-1.4-0.3-1.4-1c0-0.9,1-1.3,1.9-1.3c0.8,0,1.2,0.2,1.6,0.4
			C119.1,31,118.2,31.8,117.1,31.8z M127.4,25.5l-2.1,5.2h-0.1l-2.1-5.2h-1.9l3.2,7.3l-1.8,4.1h1.9l5-11.4H127.4z M111.1,33.2h1.8
			V21.1h-1.8V33.2z"/>
	</g>
	<g id="XMLID_3_">
		
			<linearGradient id="XMLID_35_" gradientUnits="userSpaceOnUse" x1="25.7665" y1="39.5981" x2="5.5595" y2="19.391" gradientTransform="matrix(1 0 0 -1 0 50)">
			<stop  offset="0" style="stop-color:#00A0FF"/>
			<stop  offset="6.574450e-03" style="stop-color:#00A1FF"/>
			<stop  offset="0.2601" style="stop-color:#00BEFF"/>
			<stop  offset="0.5122" style="stop-color:#00D2FF"/>
			<stop  offset="0.7604" style="stop-color:#00DFFF"/>
			<stop  offset="1" style="stop-color:#00E3FF"/>
		</linearGradient>
		<path id="XMLID_12_" class="st3" d="M12.1,9c-0.4,0.4-0.6,0.9-0.6,1.7v26.6c0,0.7,0.2,1.3,0.6,1.7l0.1,0.1l14.9-14.9V24v-0.2
			L12.1,9L12.1,9z"/>
		
			<linearGradient id="XMLID_41_" gradientUnits="userSpaceOnUse" x1="40.257" y1="26.0021" x2="11.1224" y2="26.0021" gradientTransform="matrix(1 0 0 -1 0 50)">
			<stop  offset="0" style="stop-color:#FFE000"/>
			<stop  offset="0.4087" style="stop-color:#FFBD00"/>
			<stop  offset="0.7754" style="stop-color:#FFA500"/>
			<stop  offset="1" style="stop-color:#FF9C00"/>
		</linearGradient>
		<path id="XMLID_11_" class="st4" d="M32.1,29.1l-5-5V24v-0.2l5-5l0.1,0.1l5.9,3.3c1.7,1,1.7,2.5,0,3.5l-5.9,3.3L32.1,29.1z"/>
		
			<linearGradient id="XMLID_42_" gradientUnits="userSpaceOnUse" x1="29.4115" y1="23.2392" x2="2.0091" y2="-4.1631" gradientTransform="matrix(1 0 0 -1 0 50)">
			<stop  offset="0" style="stop-color:#FF3A44"/>
			<stop  offset="1" style="stop-color:#C31162"/>
		</linearGradient>
		<path id="XMLID_10_" class="st5" d="M32.2,29.1L27.1,24l-15,15c0.6,0.6,1.5,0.7,2.5,0.1L32.2,29.1"/>
		
			<linearGradient id="XMLID_43_" gradientUnits="userSpaceOnUse" x1="8.3047" y1="49.873" x2="20.541" y2="37.6367" gradientTransform="matrix(1 0 0 -1 0 50)">
			<stop  offset="0" style="stop-color:#32A071"/>
			<stop  offset="6.850000e-02" style="stop-color:#2DA771"/>
			<stop  offset="0.4762" style="stop-color:#15CF74"/>
			<stop  offset="0.8009" style="stop-color:#06E775"/>
			<stop  offset="1" style="stop-color:#00F076"/>
		</linearGradient>
		<path id="XMLID_9_" class="st6" d="M32.2,18.9l-17.6-10c-1-0.6-1.9-0.5-2.5,0.1l15,15L32.2,18.9z"/>
		<g id="XMLID_6_">
			<path id="XMLID_8_" class="st7" d="M32.1,29l-17.5,9.9c-1,0.6-1.9,0.5-2.4,0l0,0L12.1,39l0,0l0.1,0.1l0,0c0.6,0.5,1.4,0.5,2.4,0
				l17.6-10L32.1,29z"/>
			<path id="XMLID_7_" class="st8" d="M12.1,38.8c-0.4-0.4-0.6-0.9-0.6-1.7v0.2c0,0.7,0.2,1.3,0.6,1.7V38.8L12.1,38.8z"/>
		</g>
		<path id="XMLID_5_" class="st8" d="M38.1,25.6l-6,3.4l0.1,0.1l5.9-3.3c0.8-0.5,1.3-1.1,1.3-1.7l0,0C39.3,24.6,38.8,25.1,38.1,25.6
			z"/>
		<path id="XMLID_4_" class="st9" d="M14.6,9.1l23.5,13.3c0.8,0.4,1.2,1,1.3,1.6l0,0c0-0.6-0.4-1.3-1.3-1.7L14.6,8.9
			c-1.7-1-3.1-0.2-3.1,1.8v0.2C11.5,8.9,12.9,8.1,14.6,9.1z"/>
	</g>
</g>
</svg>
